<?xml version="1.0" encoding="UTF-8" standalone="no"?>
<!DOCTYPE svg PUBLIC "-//W3C//DTD SVG 1.1//EN"
 "http://www.w3.org/Graphics/SVG/1.1/DTD/svg11.dtd">
<!-- Generated by graphviz version 2.40.1 (20161225.0304)
 -->
<!-- Title: dependencies Pages: 1 -->
<svg width="534pt" height="284pt"
 viewBox="0.00 0.00 534.00 284.00" xmlns="http://www.w3.org/2000/svg" xmlns:xlink="http://www.w3.org/1999/xlink">
<g id="graph0" class="graph" transform="scale(1 1) rotate(0) translate(4 280)">
<title>dependencies</title>
<polygon fill="#ffffff" stroke="transparent" points="-4,4 -4,-280 530,-280 530,4 -4,4"/>
<text text-anchor="start" x="242.0091" y="-42.4" font-family="sans-serif" font-weight="bold" font-size="14.00" fill="#000000">Legend</text>
<polygon fill="#ffffb3" stroke="transparent" points="29,-10 29,-30 49,-30 49,-10 29,-10"/>
<text text-anchor="start" x="52.629" y="-15.4" font-family="sans-serif" font-size="14.00" fill="#000000"> &#160;Declarations</text>
<polygon fill="#8dd3c7" stroke="transparent" points="142,-10 142,-30 162,-30 162,-10 142,-10"/>
<text text-anchor="start" x="165.7251" y="-15.4" font-family="sans-serif" font-size="14.00" fill="#000000"> &#160;Module</text>
<polygon fill="#80b1d3" stroke="transparent" points="228,-10 228,-30 248,-30 248,-10 228,-10"/>
<text text-anchor="start" x="251.7812" y="-15.4" font-family="sans-serif" font-size="14.00" fill="#000000"> &#160;Bootstrap</text>
<polygon fill="#fdb462" stroke="transparent" points="325,-10 325,-30 345,-30 345,-10 325,-10"/>
<text text-anchor="start" x="348.6732" y="-15.4" font-family="sans-serif" font-size="14.00" fill="#000000"> &#160;Providers</text>
<polygon fill="#fb8072" stroke="transparent" points="421,-10 421,-30 441,-30 441,-10 421,-10"/>
<text text-anchor="start" x="444.7258" y="-15.4" font-family="sans-serif" font-size="14.00" fill="#000000"> &#160;Exports</text>
<g id="clust1" class="cluster">
<title>cluster_GooglePlaceModule</title>
<polygon fill="none" stroke="#000000" stroke-dasharray="1,5" points="8,-70 8,-268 518,-268 518,-70 8,-70"/>
</g>
<g id="clust2" class="cluster">
<title>cluster_GooglePlaceModule_declarations</title>
<polygon fill="none" stroke="#000000" points="354,-78 354,-130 510,-130 510,-78 354,-78"/>
</g>
<g id="clust4" class="cluster">
<title>cluster_GooglePlaceModule_imports</title>
<polygon fill="none" stroke="#000000" points="218,-78 218,-130 346,-130 346,-78 218,-78"/>
</g>
<g id="clust5" class="cluster">
<title>cluster_GooglePlaceModule_exports</title>
<polygon fill="none" stroke="#000000" points="129,-208 129,-260 422,-260 422,-208 129,-208"/>
</g>
<g id="clust7" class="cluster">
<title>cluster_GooglePlaceModule_providers</title>
<polygon fill="none" stroke="#000000" points="16,-78 16,-130 210,-130 210,-78 16,-78"/>
</g>
<!-- GooglePlaceDirective -->
<g id="node1" class="node">
<title>GooglePlaceDirective</title>
<polygon fill="#ffffb3" stroke="#000000" points="501.6121,-122 362.3879,-122 362.3879,-86 501.6121,-86 501.6121,-122"/>
<text text-anchor="middle" x="432" y="-99.8" font-family="Times,serif" font-size="14.00" fill="#000000">GooglePlaceDirective</text>
</g>
<!-- GooglePlaceModule -->
<g id="node2" class="node">
<title>GooglePlaceModule</title>
<polygon fill="#8dd3c7" stroke="#000000" points="347.5786,-187 344.5786,-191 323.5786,-191 320.5786,-187 216.4214,-187 216.4214,-151 347.5786,-151 347.5786,-187"/>
<text text-anchor="middle" x="282" y="-164.8" font-family="Times,serif" font-size="14.00" fill="#000000">GooglePlaceModule</text>
</g>
<!-- GooglePlaceDirective&#45;&gt;GooglePlaceModule -->
<g id="edge1" class="edge">
<title>GooglePlaceDirective&#45;&gt;GooglePlaceModule</title>
<path fill="none" stroke="#000000" d="M362.0662,-104C350.7667,-104 342.6866,-104 342.6866,-104 342.6866,-104 342.6866,-140.8939 342.6866,-140.8939"/>
<polygon fill="#000000" stroke="#000000" points="339.1866,-140.8938 342.6866,-150.8939 346.1866,-140.8939 339.1866,-140.8938"/>
</g>
<!-- CommonModule  -->
<g id="node4" class="node">
<title>CommonModule </title>
<polygon fill="#fb8072" stroke="#000000" points="413.6677,-252 298.3323,-252 298.3323,-216 413.6677,-216 413.6677,-252"/>
<text text-anchor="middle" x="356" y="-229.8" font-family="Times,serif" font-size="14.00" fill="#000000">CommonModule </text>
</g>
<!-- GooglePlaceModule&#45;&gt;CommonModule  -->
<g id="edge3" class="edge">
<title>GooglePlaceModule&#45;&gt;CommonModule </title>
<path fill="none" stroke="#000000" stroke-dasharray="5,2" d="M322.9778,-187.1061C322.9778,-187.1061 322.9778,-205.991 322.9778,-205.991"/>
<polygon fill="#000000" stroke="#000000" points="319.4778,-205.9909 322.9778,-215.991 326.4778,-205.991 319.4778,-205.9909"/>
</g>
<!-- GooglePlaceDirective  -->
<g id="node5" class="node">
<title>GooglePlaceDirective </title>
<polygon fill="#fb8072" stroke="#000000" points="280.6116,-252 137.3884,-252 137.3884,-216 280.6116,-216 280.6116,-252"/>
<text text-anchor="middle" x="209" y="-229.8" font-family="Times,serif" font-size="14.00" fill="#000000">GooglePlaceDirective </text>
</g>
<!-- GooglePlaceModule&#45;&gt;GooglePlaceDirective  -->
<g id="edge4" class="edge">
<title>GooglePlaceModule&#45;&gt;GooglePlaceDirective </title>
<path fill="none" stroke="#000000" stroke-dasharray="5,2" d="M248.5082,-187.1061C248.5082,-187.1061 248.5082,-205.991 248.5082,-205.991"/>
<polygon fill="#000000" stroke="#000000" points="245.0083,-205.9909 248.5082,-215.991 252.0083,-205.991 245.0083,-205.9909"/>
</g>
<!-- CommonModule -->
<g id="node3" class="node">
<title>CommonModule</title>
<polygon fill="#8dd3c7" stroke="#000000" points="337.6681,-122 334.6681,-126 313.6681,-126 310.6681,-122 226.3319,-122 226.3319,-86 337.6681,-86 337.6681,-122"/>
<text text-anchor="middle" x="282" y="-99.8" font-family="Times,serif" font-size="14.00" fill="#000000">CommonModule</text>
</g>
<!-- CommonModule&#45;&gt;GooglePlaceModule -->
<g id="edge2" class="edge">
<title>CommonModule&#45;&gt;GooglePlaceModule</title>
<path fill="none" stroke="#000000" d="M282,-122.1061C282,-122.1061 282,-140.991 282,-140.991"/>
<polygon fill="#000000" stroke="#000000" points="278.5001,-140.9909 282,-150.991 285.5001,-140.991 278.5001,-140.9909"/>
</g>
<!-- GooglePlaceService -->
<g id="node6" class="node">
<title>GooglePlaceService</title>
<ellipse fill="#fdb462" stroke="#000000" cx="113" cy="-104" rx="89.1626" ry="18"/>
<text text-anchor="middle" x="113" y="-99.8" font-family="Times,serif" font-size="14.00" fill="#000000">GooglePlaceService</text>
</g>
<!-- GooglePlaceService&#45;&gt;GooglePlaceModule -->
<g id="edge5" class="edge">
<title>GooglePlaceService&#45;&gt;GooglePlaceModule</title>
<path fill="none" stroke="#000000" d="M202.4467,-104C213.6712,-104 221.3135,-104 221.3135,-104 221.3135,-104 221.3135,-140.8939 221.3135,-140.8939"/>
<polygon fill="#000000" stroke="#000000" points="217.8135,-140.8938 221.3135,-150.8939 224.8135,-140.8939 217.8135,-140.8938"/>
</g>
</g>
</svg>
