<?xml version="1.0" encoding="UTF-8" standalone="no"?>
<!DOCTYPE svg PUBLIC "-//W3C//DTD SVG 1.1//EN"
 "http://www.w3.org/Graphics/SVG/1.1/DTD/svg11.dtd">
<!-- Generated by graphviz version 2.40.1 (20161225.0304)
 -->
<!-- Title: dependencies Pages: 1 -->
<svg width="1013pt" height="360pt"
 viewBox="0.00 0.00 1013.00 360.00" xmlns="http://www.w3.org/2000/svg" xmlns:xlink="http://www.w3.org/1999/xlink">
<g id="graph0" class="graph" transform="scale(1 1) rotate(0) translate(4 356)">
<title>dependencies</title>
<polygon fill="#ffffff" stroke="transparent" points="-4,4 -4,-356 1009,-356 1009,4 -4,4"/>
<text text-anchor="start" x="481.5091" y="-42.4" font-family="sans-serif" font-weight="bold" font-size="14.00" fill="#000000">Legend</text>
<polygon fill="#ffffb3" stroke="transparent" points="268.5,-10 268.5,-30 288.5,-30 288.5,-10 268.5,-10"/>
<text text-anchor="start" x="292.129" y="-15.4" font-family="sans-serif" font-size="14.00" fill="#000000"> &#160;Declarations</text>
<polygon fill="#8dd3c7" stroke="transparent" points="381.5,-10 381.5,-30 401.5,-30 401.5,-10 381.5,-10"/>
<text text-anchor="start" x="405.2251" y="-15.4" font-family="sans-serif" font-size="14.00" fill="#000000"> &#160;Module</text>
<polygon fill="#80b1d3" stroke="transparent" points="467.5,-10 467.5,-30 487.5,-30 487.5,-10 467.5,-10"/>
<text text-anchor="start" x="491.2812" y="-15.4" font-family="sans-serif" font-size="14.00" fill="#000000"> &#160;Bootstrap</text>
<polygon fill="#fdb462" stroke="transparent" points="564.5,-10 564.5,-30 584.5,-30 584.5,-10 564.5,-10"/>
<text text-anchor="start" x="588.1732" y="-15.4" font-family="sans-serif" font-size="14.00" fill="#000000"> &#160;Providers</text>
<polygon fill="#fb8072" stroke="transparent" points="660.5,-10 660.5,-30 680.5,-30 680.5,-10 660.5,-10"/>
<text text-anchor="start" x="684.2258" y="-15.4" font-family="sans-serif" font-size="14.00" fill="#000000"> &#160;Exports</text>
<g id="clust1" class="cluster">
<title>cluster_AppModule</title>
<polygon fill="none" stroke="#000000" stroke-dasharray="1,5" points="363,-146 363,-344 997,-344 997,-146 363,-146"/>
</g>
<g id="clust2" class="cluster">
<title>cluster_AppModule_declarations</title>
<polygon fill="none" stroke="#000000" points="867,-154 867,-206 989,-206 989,-154 867,-154"/>
</g>
<g id="clust4" class="cluster">
<title>cluster_AppModule_imports</title>
<polygon fill="none" stroke="#000000" points="371,-154 371,-206 859,-206 859,-154 371,-154"/>
</g>
<g id="clust6" class="cluster">
<title>cluster_AppModule_bootstrap</title>
<polygon fill="none" stroke="#000000" points="617,-284 617,-336 741,-336 741,-284 617,-284"/>
</g>
<g id="clust8" class="cluster">
<title>cluster_GooglePlaceModule</title>
<polygon fill="none" stroke="#000000" stroke-dasharray="1,5" points="8,-70 8,-138 819,-138 819,-70 8,-70"/>
</g>
<g id="clust9" class="cluster">
<title>cluster_GooglePlaceModule_declarations</title>
<polygon fill="none" stroke="#000000" points="655,-78 655,-130 811,-130 811,-78 655,-78"/>
</g>
<g id="clust11" class="cluster">
<title>cluster_GooglePlaceModule_imports</title>
<polygon fill="none" stroke="#000000" points="519,-78 519,-130 647,-130 647,-78 519,-78"/>
</g>
<g id="clust12" class="cluster">
<title>cluster_GooglePlaceModule_exports</title>
<polygon fill="none" stroke="#000000" points="218,-78 218,-130 511,-130 511,-78 218,-78"/>
</g>
<g id="clust14" class="cluster">
<title>cluster_GooglePlaceModule_providers</title>
<polygon fill="none" stroke="#000000" points="16,-78 16,-130 210,-130 210,-78 16,-78"/>
</g>
<!-- AppComponent -->
<g id="node1" class="node">
<title>AppComponent</title>
<polygon fill="#ffffb3" stroke="#000000" points="980.9399,-198 875.0601,-198 875.0601,-162 980.9399,-162 980.9399,-198"/>
<text text-anchor="middle" x="928" y="-175.8" font-family="Times,serif" font-size="14.00" fill="#000000">AppComponent</text>
</g>
<!-- AppModule -->
<g id="node2" class="node">
<title>AppModule</title>
<polygon fill="#8dd3c7" stroke="#000000" points="720.6571,-263 717.6571,-267 696.6571,-267 693.6571,-263 637.3429,-263 637.3429,-227 720.6571,-227 720.6571,-263"/>
<text text-anchor="middle" x="679" y="-240.8" font-family="Times,serif" font-size="14.00" fill="#000000">AppModule</text>
</g>
<!-- AppComponent&#45;&gt;AppModule -->
<g id="edge1" class="edge">
<title>AppComponent&#45;&gt;AppModule</title>
<path fill="none" stroke="#000000" d="M928,-198.2843C928,-219.3211 928,-251 928,-251 928,-251 730.677,-251 730.677,-251"/>
<polygon fill="#000000" stroke="#000000" points="730.677,-247.5001 720.677,-251 730.677,-254.5001 730.677,-247.5001"/>
</g>
<!-- AppComponent  -->
<g id="node7" class="node">
<title>AppComponent </title>
<polygon fill="#80b1d3" stroke="#000000" points="733.439,-328 624.561,-328 624.561,-292 733.439,-292 733.439,-328"/>
<text text-anchor="middle" x="679" y="-305.8" font-family="Times,serif" font-size="14.00" fill="#000000">AppComponent </text>
</g>
<!-- AppModule&#45;&gt;AppComponent  -->
<g id="edge6" class="edge">
<title>AppModule&#45;&gt;AppComponent </title>
<path fill="none" stroke="#000000" stroke-dasharray="1,5" d="M679,-263.1061C679,-263.1061 679,-281.991 679,-281.991"/>
<polygon fill="#000000" stroke="#000000" points="675.5001,-281.9909 679,-291.991 682.5001,-281.991 675.5001,-281.9909"/>
</g>
<!-- BrowserModule -->
<g id="node3" class="node">
<title>BrowserModule</title>
<polygon fill="#8dd3c7" stroke="#000000" points="851.4734,-198 848.4734,-202 827.4734,-202 824.4734,-198 744.5266,-198 744.5266,-162 851.4734,-162 851.4734,-198"/>
<text text-anchor="middle" x="798" y="-175.8" font-family="Times,serif" font-size="14.00" fill="#000000">BrowserModule</text>
</g>
<!-- BrowserModule&#45;&gt;AppModule -->
<g id="edge2" class="edge">
<title>BrowserModule&#45;&gt;AppModule</title>
<path fill="none" stroke="#000000" d="M798,-198.0225C798,-215.3734 798,-239 798,-239 798,-239 730.9549,-239 730.9549,-239"/>
<polygon fill="#000000" stroke="#000000" points="730.955,-235.5001 720.9549,-239 730.9549,-242.5001 730.955,-235.5001"/>
</g>
<!-- FormsModule -->
<g id="node4" class="node">
<title>FormsModule</title>
<polygon fill="#8dd3c7" stroke="#000000" points="726.8288,-198 723.8288,-202 702.8288,-202 699.8288,-198 631.1712,-198 631.1712,-162 726.8288,-162 726.8288,-198"/>
<text text-anchor="middle" x="679" y="-175.8" font-family="Times,serif" font-size="14.00" fill="#000000">FormsModule</text>
</g>
<!-- FormsModule&#45;&gt;AppModule -->
<g id="edge3" class="edge">
<title>FormsModule&#45;&gt;AppModule</title>
<path fill="none" stroke="#000000" d="M679,-198.1061C679,-198.1061 679,-216.991 679,-216.991"/>
<polygon fill="#000000" stroke="#000000" points="675.5001,-216.9909 679,-226.991 682.5001,-216.991 675.5001,-216.9909"/>
</g>
<!-- HttpModule -->
<g id="node5" class="node">
<title>HttpModule</title>
<polygon fill="#8dd3c7" stroke="#000000" points="613.4387,-198 610.4387,-202 589.4387,-202 586.4387,-198 528.5613,-198 528.5613,-162 613.4387,-162 613.4387,-198"/>
<text text-anchor="middle" x="571" y="-175.8" font-family="Times,serif" font-size="14.00" fill="#000000">HttpModule</text>
</g>
<!-- HttpModule&#45;&gt;AppModule -->
<g id="edge4" class="edge">
<title>HttpModule&#45;&gt;AppModule</title>
<path fill="none" stroke="#000000" d="M571,-198.0225C571,-215.3734 571,-239 571,-239 571,-239 627.2444,-239 627.2444,-239"/>
<polygon fill="#000000" stroke="#000000" points="627.2444,-242.5001 637.2444,-239 627.2443,-235.5001 627.2444,-242.5001"/>
</g>
<!-- GooglePlaceModule -->
<g id="node6" class="node">
<title>GooglePlaceModule</title>
<polygon fill="#8dd3c7" stroke="#000000" points="510.5786,-198 507.5786,-202 486.5786,-202 483.5786,-198 379.4214,-198 379.4214,-162 510.5786,-162 510.5786,-198"/>
<text text-anchor="middle" x="445" y="-175.8" font-family="Times,serif" font-size="14.00" fill="#000000">GooglePlaceModule</text>
</g>
<!-- GooglePlaceModule&#45;&gt;AppModule -->
<g id="edge5" class="edge">
<title>GooglePlaceModule&#45;&gt;AppModule</title>
<path fill="none" stroke="#000000" d="M445,-198.2843C445,-219.3211 445,-251 445,-251 445,-251 627.1655,-251 627.1655,-251"/>
<polygon fill="#000000" stroke="#000000" points="627.1655,-254.5001 637.1655,-251 627.1655,-247.5001 627.1655,-254.5001"/>
</g>
<!-- CommonModule  -->
<g id="node10" class="node">
<title>CommonModule </title>
<polygon fill="#fb8072" stroke="#000000" points="502.6677,-122 387.3323,-122 387.3323,-86 502.6677,-86 502.6677,-122"/>
<text text-anchor="middle" x="445" y="-99.8" font-family="Times,serif" font-size="14.00" fill="#000000">CommonModule </text>
</g>
<!-- GooglePlaceModule&#45;&gt;CommonModule  -->
<g id="edge9" class="edge">
<title>GooglePlaceModule&#45;&gt;CommonModule </title>
<path fill="none" stroke="#000000" stroke-dasharray="5,2" d="M445,-161.9891C445,-161.9891 445,-132.145 445,-132.145"/>
<polygon fill="#000000" stroke="#000000" points="448.5001,-132.145 445,-122.145 441.5001,-132.1451 448.5001,-132.145"/>
</g>
<!-- GooglePlaceDirective  -->
<g id="node11" class="node">
<title>GooglePlaceDirective </title>
<polygon fill="#fb8072" stroke="#000000" points="369.6116,-122 226.3884,-122 226.3884,-86 369.6116,-86 369.6116,-122"/>
<text text-anchor="middle" x="298" y="-99.8" font-family="Times,serif" font-size="14.00" fill="#000000">GooglePlaceDirective </text>
</g>
<!-- GooglePlaceModule&#45;&gt;GooglePlaceDirective  -->
<g id="edge10" class="edge">
<title>GooglePlaceModule&#45;&gt;GooglePlaceDirective </title>
<path fill="none" stroke="#000000" stroke-dasharray="5,2" d="M383.4385,-161.9891C383.4385,-139.5148 383.4385,-104 383.4385,-104 383.4385,-104 379.7113,-104 379.7113,-104"/>
<polygon fill="#000000" stroke="#000000" points="379.7113,-100.5001 369.7113,-104 379.7112,-107.5001 379.7113,-100.5001"/>
</g>
<!-- GooglePlaceDirective -->
<g id="node8" class="node">
<title>GooglePlaceDirective</title>
<polygon fill="#ffffb3" stroke="#000000" points="802.6121,-122 663.3879,-122 663.3879,-86 802.6121,-86 802.6121,-122"/>
<text text-anchor="middle" x="733" y="-99.8" font-family="Times,serif" font-size="14.00" fill="#000000">GooglePlaceDirective</text>
</g>
<!-- GooglePlaceDirective&#45;&gt;GooglePlaceModule -->
<g id="edge7" class="edge">
<title>GooglePlaceDirective&#45;&gt;GooglePlaceModule</title>
<path fill="none" stroke="#000000" d="M694.9292,-122.1097C694.9292,-131.897 694.9292,-142 694.9292,-142 694.9292,-142 507.8875,-142 507.8875,-142 507.8875,-142 507.8875,-151.8903 507.8875,-151.8903"/>
<polygon fill="#000000" stroke="#000000" points="504.3876,-151.8903 507.8875,-161.8903 511.3876,-151.8904 504.3876,-151.8903"/>
</g>
<!-- CommonModule -->
<g id="node9" class="node">
<title>CommonModule</title>
<polygon fill="#8dd3c7" stroke="#000000" points="638.6681,-122 635.6681,-126 614.6681,-126 611.6681,-122 527.3319,-122 527.3319,-86 638.6681,-86 638.6681,-122"/>
<text text-anchor="middle" x="583" y="-99.8" font-family="Times,serif" font-size="14.00" fill="#000000">CommonModule</text>
</g>
<!-- CommonModule&#45;&gt;GooglePlaceModule -->
<g id="edge8" class="edge">
<title>CommonModule&#45;&gt;GooglePlaceModule</title>
<path fill="none" stroke="#000000" d="M527.3118,-104C514.847,-104 505.2356,-104 505.2356,-104 505.2356,-104 505.2356,-151.9891 505.2356,-151.9891"/>
<polygon fill="#000000" stroke="#000000" points="501.7357,-151.989 505.2356,-161.9891 508.7357,-151.9891 501.7357,-151.989"/>
</g>
<!-- GooglePlaceService -->
<g id="node12" class="node">
<title>GooglePlaceService</title>
<ellipse fill="#fdb462" stroke="#000000" cx="113" cy="-104" rx="89.1626" ry="18"/>
<text text-anchor="middle" x="113" y="-99.8" font-family="Times,serif" font-size="14.00" fill="#000000">GooglePlaceService</text>
</g>
<!-- GooglePlaceService&#45;&gt;GooglePlaceModule -->
<g id="edge11" class="edge">
<title>GooglePlaceService&#45;&gt;GooglePlaceModule</title>
<path fill="none" stroke="#000000" d="M113,-122.0109C113,-144.4852 113,-180 113,-180 113,-180 369.4075,-180 369.4075,-180"/>
<polygon fill="#000000" stroke="#000000" points="369.4075,-183.5001 379.4075,-180 369.4074,-176.5001 369.4075,-183.5001"/>
</g>
</g>
</svg>
